<svg xmlns="http://www.w3.org/2000/svg" width="20" height="20" viewBox="0 0 20 20">
  <g fill="none" fill-rule="evenodd">
    <rect width="20" height="20"/>
    <path fill="#000" fill-rule="nonzero" d="M8,11.8 L12,11.8 L12,8.2 C12,7.7581722 12.3581722,7.4 12.8,7.4 L13.2,7.4 C13.6418278,7.4 14,7.7581722 14,8.2 L14,17.4 C14,17.8418278 13.6418278,18.2 13.2,18.2 L12.8,18.2 C12.3581722,18.2 12,17.8418278 12,17.4 L12,13.8 L8,13.8 L8,17.4 C8,17.8418278 7.6418278,18.2 7.2,18.2 L6.8,18.2 C6.3581722,18.2 6,17.8418278 6,17.4 L6,8.2 C6,7.7581722 6.3581722,7.4 6.8,7.4 L7.2,7.4 C7.6418278,7.4 8,7.7581722 8,8.2 L8,11.8 Z"/>
  </g>
</svg>
