<svg xmlns="http://www.w3.org/2000/svg" width="20" height="20" viewBox="0 0 20 20">
  <g fill="none" fill-rule="evenodd">
    <rect width="20" height="20"/>
    <path fill="#000" fill-rule="nonzero" d="M7,8.6 L13,8.6 L13,3.2 C13,2.5372583 13.5372583,2 14.2,2 L14.8,2 C15.4627417,2 16,2.5372583 16,3.2 L16,17 C16,17.6627417 15.4627417,18.2 14.8,18.2 L14.2,18.2 C13.5372583,18.2 13,17.6627417 13,17 L13,11.6 L7,11.6 L7,17 C7,17.6627417 6.4627417,18.2 5.8,18.2 L5.2,18.2 C4.5372583,18.2 4,17.6627417 4,17 L4,3.2 C4,2.5372583 4.5372583,2 5.2,2 L5.8,2 C6.4627417,2 7,2.5372583 7,3.2 L7,8.6 Z"/>
  </g>
</svg>
